<mxfile host="app.diagrams.net" agent="Mozilla/5.0 (Macintosh; Intel Mac OS X 10_15_7) AppleWebKit/537.36 (KHTML, like Gecko) Chrome/127.0.0.0 Safari/537.36" version="24.7.6">
  <diagram name="페이지-1" id="Oy09YMq7JXKhEEB8FjI7">
    <mxGraphModel dx="1562" dy="915" grid="1" gridSize="10" guides="1" tooltips="1" connect="1" arrows="1" fold="1" page="1" pageScale="1" pageWidth="827" pageHeight="1169" math="0" shadow="0">
      <root>
        <mxCell id="0" />
        <mxCell id="1" parent="0" />
        <mxCell id="6oBRFBxgZSd3UmwGu-zr-8" style="edgeStyle=orthogonalEdgeStyle;rounded=0;orthogonalLoop=1;jettySize=auto;html=1;" edge="1" parent="1" source="6oBRFBxgZSd3UmwGu-zr-1" target="6oBRFBxgZSd3UmwGu-zr-3">
          <mxGeometry relative="1" as="geometry" />
        </mxCell>
        <mxCell id="6oBRFBxgZSd3UmwGu-zr-1" value="클라이언트&lt;div&gt;접속 요청 / 메세지&lt;/div&gt;" style="whiteSpace=wrap;html=1;aspect=fixed;" vertex="1" parent="1">
          <mxGeometry x="90" y="50" width="90" height="90" as="geometry" />
        </mxCell>
        <mxCell id="6oBRFBxgZSd3UmwGu-zr-2" value="클라이언트&lt;div&gt;메세지 업로드&lt;/div&gt;" style="whiteSpace=wrap;html=1;aspect=fixed;" vertex="1" parent="1">
          <mxGeometry x="580" y="545" width="100" height="100" as="geometry" />
        </mxCell>
        <mxCell id="6oBRFBxgZSd3UmwGu-zr-3" value="List" style="swimlane;fontStyle=0;childLayout=stackLayout;horizontal=1;startSize=30;horizontalStack=0;resizeParent=1;resizeParentMax=0;resizeLast=0;collapsible=1;marginBottom=0;whiteSpace=wrap;html=1;" vertex="1" parent="1">
          <mxGeometry x="160" y="260" width="140" height="120" as="geometry" />
        </mxCell>
        <mxCell id="6oBRFBxgZSd3UmwGu-zr-4" value="IP주소" style="text;strokeColor=none;fillColor=none;align=left;verticalAlign=middle;spacingLeft=4;spacingRight=4;overflow=hidden;points=[[0,0.5],[1,0.5]];portConstraint=eastwest;rotatable=0;whiteSpace=wrap;html=1;" vertex="1" parent="6oBRFBxgZSd3UmwGu-zr-3">
          <mxGeometry y="30" width="140" height="30" as="geometry" />
        </mxCell>
        <mxCell id="6oBRFBxgZSd3UmwGu-zr-5" value="포트번호" style="text;strokeColor=none;fillColor=none;align=left;verticalAlign=middle;spacingLeft=4;spacingRight=4;overflow=hidden;points=[[0,0.5],[1,0.5]];portConstraint=eastwest;rotatable=0;whiteSpace=wrap;html=1;" vertex="1" parent="6oBRFBxgZSd3UmwGu-zr-3">
          <mxGeometry y="60" width="140" height="30" as="geometry" />
        </mxCell>
        <mxCell id="6oBRFBxgZSd3UmwGu-zr-6" value="클라이언트 이름" style="text;strokeColor=none;fillColor=none;align=left;verticalAlign=middle;spacingLeft=4;spacingRight=4;overflow=hidden;points=[[0,0.5],[1,0.5]];portConstraint=eastwest;rotatable=0;whiteSpace=wrap;html=1;" vertex="1" parent="6oBRFBxgZSd3UmwGu-zr-3">
          <mxGeometry y="90" width="140" height="30" as="geometry" />
        </mxCell>
      </root>
    </mxGraphModel>
  </diagram>
</mxfile>
